HIERARCHY
ROOT root
{
	OFFSET	0	13.1	24.9
	CHANNELS 6  Xposition Yposition Zposition Xrotation Yrotation Zrotation
	JOINT spine_1
	{
		OFFSET	0	9.99999	0
		CHANNELS 3  Xrotation Yrotation Zrotation
		JOINT spine_2
		{
			OFFSET	0	112	-10
			CHANNELS 3  Xrotation Yrotation Zrotation
			JOINT spine_3
			{
				OFFSET	0	206.5	19.3
				CHANNELS 3  Xrotation Yrotation Zrotation
				JOINT spine_4
				{
					OFFSET	0	110.4	14.6
					CHANNELS 3  Xrotation Yrotation Zrotation
					JOINT neck_1
					{
						OFFSET	0	71.8	-50.3
						CHANNELS 3  Xrotation Yrotation Zrotation
						JOINT neck_2
						{
							OFFSET	0	86.2	-25.8
							CHANNELS 3  Xrotation Yrotation Zrotation
							JOINT head_ee
							{
								OFFSET	0	179.8	-8.7
								CHANNELS 3  Xrotation Yrotation Zrotation
								End Site
								{
									OFFSET	1	0	0
								}
							}
						}
					}
					JOINT left_clavicle
					{
						OFFSET	-43.2	22.4	-70.8
						CHANNELS 3  Xrotation Yrotation Zrotation
						JOINT left_shoulder
						{
							OFFSET	-93.9	-5.79999	48.7
							CHANNELS 3  Xrotation Yrotation Zrotation
							JOINT left_elbow
							{
								OFFSET	-291.4	-30.8	15.2
								CHANNELS 3  Xrotation Yrotation Zrotation
								JOINT left_lowarm_twist
								{
									OFFSET	-110.7	-3.89999	13.6
									CHANNELS 3  Xrotation Yrotation Zrotation
									JOINT left_hand
									{
										OFFSET	-110.7	-3.89999	13.6
										CHANNELS 3  Xrotation Yrotation Zrotation
										JOINT left_ee
										{
											OFFSET	-80.8	-5.10001	12.1
											CHANNELS 3  Xrotation Yrotation Zrotation
											End Site
											{
												OFFSET	1	0	0
											}
										}
									}
								}
							}
						}
					}
					JOINT right_clavicle
					{
						OFFSET	43.2	22.4	-70.8
						CHANNELS 3  Xrotation Yrotation Zrotation
						JOINT right_shoulder
						{
							OFFSET	93.9	-5.79999	48.7
							CHANNELS 3  Xrotation Yrotation Zrotation
							JOINT right_elbow
							{
								OFFSET	291.4	-30.8	15.2
								CHANNELS 3  Xrotation Yrotation Zrotation
								JOINT right_lowarm_twist
								{
									OFFSET	110.7	-3.89999	13.6
									CHANNELS 3  Xrotation Yrotation Zrotation
									JOINT right_hand
									{
										OFFSET	110.7	-3.89999	13.6
										CHANNELS 3  Xrotation Yrotation Zrotation
										JOINT right_ee
										{
											OFFSET	80.8	-5.10001	12.1
											CHANNELS 3  Xrotation Yrotation Zrotation
											End Site
											{
												OFFSET	1	0	0
											}
										}
									}
								}
							}
						}
					}
				}
			}
		}
	}
	JOINT left_hip
	{
		OFFSET	-82.8	-127.5	0.300001
		CHANNELS 3  Xrotation Yrotation Zrotation
		JOINT left_knee
		{
			OFFSET	-28.2	-396.7	2.2
			CHANNELS 3  Xrotation Yrotation Zrotation
			JOINT left_ankle
			{
				OFFSET	-11.7	-411.3	35.4
				CHANNELS 3  Xrotation Yrotation Zrotation
				JOINT left_toes
				{
					OFFSET	0	-60	-88.6
					CHANNELS 3  Xrotation Yrotation Zrotation
					JOINT left_foot_ee
					{
						OFFSET	-22.5	-16.5	-42.2
						CHANNELS 3  Xrotation Yrotation Zrotation
						End Site
						{
							OFFSET	1	0	0
						}
					}
				}
			}
		}
	}
	JOINT right_hip
	{
		OFFSET	82.8	-127.5	0.300001
		CHANNELS 3  Xrotation Yrotation Zrotation
		JOINT right_knee
		{
			OFFSET	28.2	-396.7	2.2
			CHANNELS 3  Xrotation Yrotation Zrotation
			JOINT right_ankle
			{
				OFFSET	11.7	-411.3	35.4
				CHANNELS 3  Xrotation Yrotation Zrotation
				JOINT right_toes
				{
					OFFSET	0	-60	-88.6
					CHANNELS 3  Xrotation Yrotation Zrotation
					JOINT right_foot_ee
					{
						OFFSET	22.5	-16.5	-42.2
						CHANNELS 3  Xrotation Yrotation Zrotation
						End Site
						{
							OFFSET	1	0	0
						}
					}
				}
			}
		}
	}
}
MOTION
Frames: 5
Frame Time: 0.02
2175.6 650.316 -659.231 -172.293 -55.9301 -175.711 0.938068 0.537383 1.86094 0.939898 0.417899 1.89135 0.954386 0.0434051 1.93647 0.949322 0.348633 1.90533 5.82641 2.40643 -2.16659 5.89974 6.00762 -2.40446 -0.0 0.0 -0.0 1.504 13.1876 4.03297 -17.6419 19.8201 72.7712 0.433271 -12.1138 0.0459739 31.9376 0.00241394 -4.02745 0.317834 2.9341 3.33685 -0.0 0.0 -0.0 11.7535 27.2909 -22.6688 26.9685 -19.1468 -58.4264 1.65312 39.3111 -0.59049 74.5698 3.22783 8.27452 5.15463 -23.8574 -43.9493 0.0 0.0 0.0 30.7368 -17.6338 0.314901 2.51158 -0.111545 -0.369215 24.9561 11.2373 -3.33621 -19.9166 0.0 0.0 -0.0 0.0 -0.0 4.63248 -40.0148 13.9132 -15.8494 -0.321972 -2.40321 36.0552 15.5996 4.8188 26.6461 -0.0 -0.0 0.0 0.0 0.0 
2202.08 648.232 -659.234 -171.234 -55.8056 -173.886 1.0736 0.355624 1.41182 1.07467 0.265075 1.43159 1.08162 -0.0142257 1.45584 1.07873 0.215852 1.43983 5.84641 3.38355 -2.3215 5.95927 7.8067 -2.54755 -0.0 0.0 -0.0 1.24586 12.9855 3.59033 -14.2809 22.4557 74.5244 0.318693 -8.97149 0.025002 32.812 -0.0290863 -4.13468 0.0305642 2.52161 1.2616 -0.0 0.0 -0.0 10.609 27.8117 -20.0238 24.2567 -19.4677 -59.1106 1.68084 39.7788 -0.608143 73.9283 3.15785 8.23114 5.5186 -23.7548 -47.1645 0.0 0.0 0.0 31.9211 -20.7581 0.759421 -1.2405 0.0490869 0.18404 31.8682 11.9834 -4.10722 -18.7094 0.0 0.0 -0.0 0.0 -0.0 5.04481 -40.836 14.4569 -16.1117 -0.321672 -2.44346 37.2673 14.4606 4.89958 28.3493 -0.0 -0.0 0.0 0.0 0.0 
2232.82 648.507 -656.885 -170.586 -56.2851 -173.43 1.27726 0.192515 1.24625 1.27811 0.112829 1.25597 1.28074 -0.125663 1.25475 1.27855 0.0740626 1.25885 5.49313 4.16807 -3.1891 5.67874 9.91623 -3.49551 -0.0 0.0 -0.0 1.13327 12.8697 3.39407 -12.1815 23.0565 75.7279 0.26503 -7.47965 0.0173238 34.3001 -0.0864502 -4.31603 -0.0676017 1.76314 0.292147 -0.0 0.0 -0.0 10.3225 27.6933 -19.3957 20.8335 -20.5424 -57.9871 1.56628 37.8047 -0.536357 75.3811 3.31702 8.32826 5.5384 -24.8442 -47.4275 0.0 0.0 0.0 33.1905 -22.564 2.78673 -4.58442 0.16142 0.684866 38.9297 10.8213 -4.78763 -17.3179 0.0 0.0 -0.0 0.0 -0.0 4.7867 -40.1161 15.0048 -15.938 -0.321891 -2.4168 37.6487 12.5299 4.87973 28.9178 -0.0 -0.0 0.0 0.0 0.0 
2255.09 650.436 -642.778 -171.893 -54.1219 -174.168 1.25553 0.347663 1.32598 1.25647 0.262591 1.34541 1.26288 0.00419248 1.37078 1.26032 0.220609 1.35292 5.25658 5.22707 -2.9276 5.47943 11.5059 -3.13083 -0.0 0.0 -0.0 1.90456 12.9465 4.67688 -10.3767 21.1209 72.7277 0.28731 -8.1004 0.0203437 36.6762 -0.187766 -4.60237 -0.204567 3.34864 0.0526139 -0.0 0.0 -0.0 9.71637 27.6584 -18.0467 14.4618 -16.7717 -61.734 1.51674 36.9168 -0.506296 77.1284 3.51162 8.43968 5.68235 -24.4428 -48.7442 0.0 0.0 0.0 34.3067 -17.3451 1.27074 -12.8543 0.312329 1.94383 38.8643 8.66228 -4.76724 -15.6107 0.0 0.0 -0.0 0.0 -0.0 3.47036 -38.9933 15.1216 -16.6081 -0.320602 -2.51961 33.6564 15.6526 4.57909 31.0003 -0.0 -0.0 0.0 0.0 0.0 
2282.82 653.309 -634.153 -172.577 -54.6576 -174.092 1.26884 0.276231 1.22206 1.26965 0.197914 1.23716 1.27411 -0.0386813 1.25229 1.27196 0.159564 1.24268 5.05078 5.39492 -3.27075 5.30023 12.1021 -3.49999 -0.0 0.0 -0.0 2.2191 11.183 5.08675 -8.80534 21.2881 72.1093 0.219111 -6.19486 0.0118568 37.4164 -0.221745 -4.69069 -0.181416 0.696244 -0.915999 -0.0 0.0 -0.0 9.4387 27.3208 -17.4672 9.2167 -17.2514 -62.8489 1.5281 37.1224 -0.513138 76.8719 3.48285 8.42369 5.37977 -26.5039 -46.0892 0.0 0.0 0.0 34.1249 -17.2726 1.59488 -17.2325 0.318318 2.61538 39.0364 8.87142 -4.78378 -13.4445 0.0 0.0 -0.0 0.0 -0.0 2.5825 -37.3852 14.9043 -19.6796 -0.299314 -2.99033 34.2778 11.2193 4.5211 30.7343 -0.0 -0.0 0.0 0.0 0.0 
